<svg width="24" height="24" viewBox="0 0 24 24" fill="none" xmlns="http://www.w3.org/2000/svg">
<path d="M3.29446 11.7528C2.77133 11.001 2.56133 10.2922 3.07321 9.86283C3.50633 9.49907 4.14383 9.4297 4.93133 10.3391C4.93133 10.3391 7.28446 13.0728 8.09446 13.8322C8.27821 14.0028 8.50696 14.0291 8.71508 13.8135C8.89133 13.6297 8.82758 13.4703 8.67758 13.251C8.67758 13.251 5.36071 8.3197 4.92571 7.71783C4.20008 6.71095 4.47946 6.06033 4.81508 5.75095C5.28196 5.31783 6.10321 5.23158 6.86633 6.27783L10.8826 11.6535C11.0045 11.7828 11.2013 11.8016 11.3457 11.7003L11.402 11.6609C11.5501 11.556 11.5932 11.3553 11.5032 11.1978C10.8001 9.97345 8.00258 5.0947 7.59196 4.20595C7.11946 3.18033 7.32196 2.65908 7.82258 2.3572C8.41696 1.99908 8.97571 2.02533 9.64321 3.0172C10.367 4.0972 13.1776 8.64408 13.892 9.86658C13.9857 10.026 14.1863 10.086 14.3513 10.0053C14.3532 10.0035 14.357 10.0035 14.3588 10.0016C14.5163 9.9247 14.6588 9.76908 14.5932 9.54782C14.2032 8.26158 12.2888 4.25658 11.8876 3.33595C11.3382 2.07783 11.6063 1.65033 12.1745 1.36158C12.7707 1.0597 13.3913 1.29783 13.8132 2.13783C14.0982 2.70783 19.1026 11.8147 19.1026 11.8147C19.0295 10.4572 19.3726 9.49533 19.6651 8.5297C20.1976 6.77283 21.4857 5.8597 22.4195 6.27033C22.9051 6.48408 22.9932 6.9097 22.9407 7.23595C22.8357 7.8697 22.3895 9.83283 22.3032 11.3703C22.1007 14.9741 23.1901 19.1272 19.1307 21.7372C16.4138 23.4847 13.502 23.1772 11.5782 21.8328C9.24571 20.2035 3.72196 12.3678 3.29446 11.7528Z" fill="#FFCA28"/>
<path d="M22.0652 9.70718C21.7258 11.1341 21.6808 12.8853 21.6921 13.6316C21.7371 16.5397 21.7221 19.0559 18.8065 21.3547C18.4483 21.6378 17.3252 22.3278 16.0183 22.6878C15.5983 22.8022 15.7577 22.9372 16.0165 22.9072C17.4433 22.7422 18.5252 22.1272 19.1271 21.7391C23.1846 19.1291 22.1871 15.0041 22.3896 11.4003C22.4758 9.86281 22.9446 7.44406 22.9371 7.23593C22.9277 7.02781 22.4046 8.28031 22.0652 9.70718ZM14.5371 9.85718C14.5371 9.85718 14.2465 9.85906 13.9708 9.47468C13.144 8.32531 10.5508 3.98468 9.80459 2.91968C8.95334 1.70468 8.16021 2.16968 7.98022 2.26718C7.98022 2.26718 8.63271 2.28968 8.99271 2.82406C9.72771 3.91343 12.514 8.79593 13.3933 9.84406C13.9615 10.5209 14.5371 9.85718 14.5371 9.85718ZM4.25834 10.2266C4.51334 10.5003 6.75209 13.1572 7.57709 13.8978C8.28584 14.5334 8.81459 13.7234 8.81459 13.7234C8.81459 13.7234 8.55397 13.7591 8.19771 13.4909C7.31272 12.8216 5.21646 10.4347 4.74396 9.93218C4.04271 9.18593 3.39021 9.65281 3.25146 9.73718C3.25334 9.73718 3.65459 9.58156 4.25834 10.2266ZM11.5483 11.4866C11.5483 11.4866 11.3083 11.6609 10.8677 11.1453C10.5471 10.7684 6.86646 6.27781 6.86646 6.27781C5.94396 5.15093 5.21834 5.48656 5.06834 5.57281C5.06834 5.57281 5.53146 5.54843 6.07334 6.17281C6.32084 6.45781 10.249 11.4659 10.4065 11.6366C10.9821 12.2647 11.5146 11.7247 11.5483 11.4866Z" fill="#EDA600"/>
<path d="M19.0874 10.8435C19.0874 10.8435 14.2105 2.66661 13.8992 2.10973C13.2074 0.874105 12.403 1.25286 12.2661 1.31473C12.2661 1.31473 12.7142 1.18723 13.2411 2.08348C13.5224 2.55973 17.1055 9.00223 18.2492 11.061C18.3392 11.4454 18.3317 11.946 18.043 12.2685C17.008 13.4291 15.688 14.6141 16.0761 17.5522C16.1736 18.2966 16.4492 19.0016 16.6536 19.341C16.9124 19.7666 17.2105 19.6054 17.0792 19.2866C16.9911 19.071 16.8505 18.5629 16.8224 18.3454C16.6911 17.3329 16.2486 15.5629 18.2324 13.4404C18.568 13.086 19.4211 12.0154 19.0874 10.8435Z" fill="#EDA600"/>
<path d="M19.4046 5.80498C19.1439 4.88061 18.7389 4.03311 18.2139 3.29811C17.7414 2.63623 17.1696 2.06623 16.5171 1.60873C16.4346 1.55061 16.3296 1.37061 16.4196 1.19623C16.5096 1.02186 16.7046 1.04436 16.7777 1.07436C17.5933 1.40998 18.2608 1.98936 18.8121 2.78436C19.4664 3.72936 19.7908 4.61998 19.9577 5.61561C19.9764 5.72436 19.9727 5.95311 19.7402 6.01311C19.5096 6.07311 19.4308 5.89498 19.4046 5.80498ZM18.1296 6.79686C17.8689 5.87248 17.4639 5.02498 16.9389 4.28998C16.4664 3.62811 15.8946 3.05811 15.2421 2.60061C15.1596 2.54248 15.0546 2.36248 15.1446 2.18811C15.2346 2.01186 15.4296 2.03623 15.5027 2.06623C16.3183 2.40186 16.9858 2.98123 17.5371 3.77623C18.1914 4.72123 18.5158 5.61186 18.6827 6.60748C18.7014 6.71623 18.6977 6.94498 18.4652 7.00498C18.2364 7.06498 18.1558 6.88873 18.1296 6.79686ZM1.60518 14.5237C1.92768 15.4294 2.38706 16.2469 2.95893 16.9462C3.47456 17.5744 4.08206 18.1069 4.76268 18.5212C4.84893 18.5737 4.96518 18.7462 4.88643 18.9262C4.80768 19.1081 4.61268 19.0969 4.53581 19.0725C3.69956 18.7912 2.99456 18.2569 2.39268 17.4994C1.67831 16.5994 1.29393 15.7331 1.06143 14.7506C1.03518 14.6419 1.02393 14.415 1.25268 14.34C1.48143 14.265 1.57331 14.4356 1.60518 14.5237ZM2.81081 13.4494C3.13331 14.355 3.59268 15.1725 4.16456 15.8719C4.68018 16.5 5.28768 17.0325 5.96831 17.4469C6.05456 17.4994 6.17081 17.6719 6.09206 17.8519C6.01331 18.0337 5.81831 18.0225 5.74144 17.9981C4.90519 17.7169 4.20019 17.1825 3.59831 16.425C2.88394 15.525 2.49956 14.6587 2.26706 13.6762C2.24081 13.5675 2.22956 13.3406 2.45831 13.2656C2.68706 13.1887 2.77893 13.3612 2.81081 13.4494Z" fill="#B0BEC5"/>
</svg>
